<svg width="16" height="17" viewBox="0 0 16 17" fill="none" xmlns="http://www.w3.org/2000/svg">
<path d="M8 9.83334H8.66667C9.4 9.83334 10 9.23334 10 8.50001V1.83334H4C3 1.83334 2.12667 2.38667 1.67334 3.2" stroke="#2E3514" stroke-linecap="round" stroke-linejoin="round"/>
<path d="M1.33337 11.8333C1.33337 12.94 2.22671 13.8333 3.33337 13.8333H4.00004C4.00004 13.1 4.60004 12.5 5.33337 12.5C6.06671 12.5 6.66671 13.1 6.66671 13.8333H9.33337C9.33337 13.1 9.93337 12.5 10.6667 12.5C11.4 12.5 12 13.1 12 13.8333H12.6667C13.7734 13.8333 14.6667 12.94 14.6667 11.8333V9.83334H12.6667C12.3 9.83334 12 9.53334 12 9.16668V7.16668C12 6.80001 12.3 6.50001 12.6667 6.50001H13.5267L12.3867 4.50668C12.1467 4.09335 11.7067 3.83334 11.2267 3.83334H10V8.50001C10 9.23334 9.40004 9.83334 8.66671 9.83334H8.00004" stroke="#2E3514" stroke-linecap="round" stroke-linejoin="round"/>
<path d="M5.33333 15.1667C6.06971 15.1667 6.66667 14.5697 6.66667 13.8333C6.66667 13.097 6.06971 12.5 5.33333 12.5C4.59695 12.5 4 13.097 4 13.8333C4 14.5697 4.59695 15.1667 5.33333 15.1667Z" stroke="#2E3514" stroke-linecap="round" stroke-linejoin="round"/>
<path d="M10.6667 15.1667C11.4031 15.1667 12 14.5697 12 13.8333C12 13.097 11.4031 12.5 10.6667 12.5C9.93033 12.5 9.33337 13.097 9.33337 13.8333C9.33337 14.5697 9.93033 15.1667 10.6667 15.1667Z" stroke="#2E3514" stroke-linecap="round" stroke-linejoin="round"/>
<path d="M14.6667 8.5V9.83333H12.6667C12.3 9.83333 12 9.53333 12 9.16667V7.16667C12 6.8 12.3 6.5 12.6667 6.5H13.5267L14.6667 8.5Z" stroke="#2E3514" stroke-linecap="round" stroke-linejoin="round"/>
<path d="M1.33337 5.83334H5.33337" stroke="#2E3514" stroke-linecap="round" stroke-linejoin="round"/>
<path d="M1.33337 7.83334H4.00004" stroke="#2E3514" stroke-linecap="round" stroke-linejoin="round"/>
<path d="M1.33337 9.83334H2.66671" stroke="#2E3514" stroke-linecap="round" stroke-linejoin="round"/>
</svg>
