<svg width="29" height="28" viewBox="0 0 29 28" fill="none" xmlns="http://www.w3.org/2000/svg">
<path d="M14.5 2.625C8.221 2.625 3.125 7.721 3.125 14C3.125 20.279 8.221 25.375 14.5 25.375C20.779 25.375 25.875 20.279 25.875 14C25.875 7.721 20.779 2.625 14.5 2.625ZM19.778 10.36C19.6074 12.1573 18.868 16.5253 18.4926 18.5386C18.3334 19.3918 18.0149 19.6761 17.7191 19.7103C17.0594 19.7671 16.5589 19.278 15.9219 18.8571C14.9209 18.1974 14.3521 17.7879 13.3853 17.1509C12.2591 16.4115 12.9871 16.002 13.6355 15.3423C13.8061 15.1716 16.7181 12.5213 16.775 12.2824C16.7829 12.2462 16.7818 12.2086 16.7719 12.173C16.762 12.1373 16.7436 12.1045 16.7181 12.0776C16.6499 12.0208 16.5589 12.0435 16.4793 12.0549C16.3769 12.0776 14.7844 13.1355 11.679 15.2285C11.224 15.5356 10.8145 15.6949 10.4505 15.6835C10.041 15.6721 9.2675 15.456 8.68738 15.2626C7.97075 15.0351 7.41338 14.91 7.45888 14.5119C7.48163 14.3071 7.766 14.1024 8.30063 13.8863C11.6221 12.4416 13.8289 11.4861 14.9323 11.0311C18.0945 9.71163 18.7429 9.48412 19.1751 9.48412C19.2661 9.48412 19.4823 9.50687 19.6188 9.62062C19.7325 9.71162 19.7666 9.83675 19.778 9.92775C19.7666 9.996 19.7894 10.2008 19.778 10.36Z" fill="#D17D2F"/>
</svg>
