<svg width="29" height="28" viewBox="0 0 29 28" fill="none" xmlns="http://www.w3.org/2000/svg">
<path d="M14.5 2.625C8.21768 2.625 3.125 7.71768 3.125 14C3.125 20.2823 8.21768 25.375 14.5 25.375C20.7823 25.375 25.875 20.2823 25.875 14C25.875 7.71768 20.7823 2.625 14.5 2.625ZM18.8746 15.4586C18.8746 15.4586 19.8806 16.4515 20.1283 16.9125C20.1354 16.922 20.1389 16.9314 20.1413 16.9362C20.242 17.1056 20.2657 17.2371 20.2159 17.3355C20.133 17.499 19.8486 17.5796 19.7515 17.5867H17.9741C17.8509 17.5867 17.5926 17.5547 17.2798 17.339C17.0392 17.1708 16.8023 16.8947 16.5712 16.6257C16.2264 16.2252 15.9278 15.8792 15.6268 15.8792C15.5886 15.8792 15.5506 15.8852 15.5143 15.897C15.2868 15.9705 14.9953 16.2951 14.9953 17.1601C14.9953 17.4303 14.782 17.5855 14.6315 17.5855H13.8175C13.5402 17.5855 12.0958 17.4883 10.8162 16.1387C9.24973 14.4858 7.8397 11.1705 7.82785 11.1397C7.73898 10.9252 7.92264 10.8103 8.12289 10.8103H9.91801C10.1574 10.8103 10.2356 10.956 10.2901 11.0852C10.354 11.2356 10.5887 11.834 10.9737 12.507C11.5982 13.6042 11.9809 14.0498 12.2878 14.0498C12.3453 14.0491 12.4019 14.0344 12.4525 14.0071C12.853 13.7843 12.7783 12.3565 12.7606 12.0603C12.7606 12.0046 12.7594 11.4217 12.5544 11.142C12.4075 10.9394 12.1575 10.8624 12.0058 10.834C12.0672 10.7493 12.1481 10.6806 12.2416 10.6337C12.5165 10.4963 13.0118 10.4761 13.5035 10.4761H13.7772C14.3104 10.4832 14.4479 10.5176 14.641 10.5662C15.032 10.6598 15.0403 10.9122 15.006 11.7759C14.9953 12.0212 14.9846 12.2985 14.9846 12.6255C14.9846 12.6966 14.9811 12.7724 14.9811 12.853C14.9692 13.2926 14.955 13.7915 15.2654 13.9964C15.3059 14.0218 15.3527 14.0354 15.4005 14.0355C15.5083 14.0355 15.833 14.0355 16.7122 12.5272C16.9833 12.0417 17.219 11.5372 17.4172 11.0176C17.435 10.9868 17.4871 10.892 17.5487 10.8553C17.5942 10.8321 17.6446 10.8203 17.6957 10.8209H19.806C20.0358 10.8209 20.1934 10.8553 20.223 10.9442C20.2752 11.0852 20.2136 11.5153 19.2502 12.8198L18.8201 13.3874C17.9469 14.532 17.9469 14.5901 18.8746 15.4586Z" fill="#D17D2F"/>
</svg>
