<svg width="29" height="28" viewBox="0 0 29 28" fill="none" xmlns="http://www.w3.org/2000/svg">
<path d="M12.1667 17.5L18.2217 14L12.1667 10.5V17.5ZM25.6534 8.36504C25.805 8.91337 25.91 9.64837 25.98 10.5817C26.0617 11.515 26.0967 12.32 26.0967 13.02L26.1667 14C26.1667 16.555 25.98 18.4334 25.6534 19.635C25.3617 20.685 24.685 21.3617 23.635 21.6534C23.0867 21.805 22.0834 21.91 20.5434 21.98C19.0267 22.0617 17.6384 22.0967 16.355 22.0967L14.5 22.1667C9.61171 22.1667 6.56671 21.98 5.36504 21.6534C4.31504 21.3617 3.63837 20.685 3.34671 19.635C3.19504 19.0867 3.09004 18.3517 3.02004 17.4184C2.93837 16.485 2.90337 15.68 2.90337 14.98L2.83337 14C2.83337 11.445 3.02004 9.56671 3.34671 8.36504C3.63837 7.31504 4.31504 6.63837 5.36504 6.34671C5.91337 6.19504 6.91671 6.09004 8.45671 6.02004C9.97337 5.93837 11.3617 5.90337 12.645 5.90337L14.5 5.83337C19.3884 5.83337 22.4334 6.02004 23.635 6.34671C24.685 6.63837 25.3617 7.31504 25.6534 8.36504Z" fill="#D17D2F"/>
</svg>
